<mxfile host="Electron" agent="Mozilla/5.0 (Windows NT 10.0; Win64; x64) AppleWebKit/537.36 (KHTML, like Gecko) draw.io/24.7.5 Chrome/126.0.6478.183 Electron/31.3.0 Safari/537.36" version="24.7.5">
  <diagram name="Page-1" id="fINA014OWj87JY5tS49f">
    <mxGraphModel dx="1434" dy="844" grid="1" gridSize="10" guides="1" tooltips="1" connect="1" arrows="1" fold="1" page="1" pageScale="1" pageWidth="690" pageHeight="980" math="0" shadow="0">
      <root>
        <mxCell id="0" />
        <mxCell id="1" parent="0" />
        <mxCell id="PgvPZWXMv5SiJyR8IEnP-11" style="edgeStyle=orthogonalEdgeStyle;rounded=0;orthogonalLoop=1;jettySize=auto;html=1;entryX=0.5;entryY=0;entryDx=0;entryDy=0;" edge="1" parent="1" source="PgvPZWXMv5SiJyR8IEnP-5" target="PgvPZWXMv5SiJyR8IEnP-6">
          <mxGeometry relative="1" as="geometry" />
        </mxCell>
        <mxCell id="PgvPZWXMv5SiJyR8IEnP-5" value="Добавить заказ в таблице orderdb, itemorderdb" style="shape=process;whiteSpace=wrap;html=1;backgroundOutline=1;size=0.0967741935483871;" vertex="1" parent="1">
          <mxGeometry x="170" y="230" width="310" height="80" as="geometry" />
        </mxCell>
        <mxCell id="PgvPZWXMv5SiJyR8IEnP-6" value="Обновить количество товаров на складе в таблице productdb -= new.quantity" style="shape=process;whiteSpace=wrap;html=1;backgroundOutline=1;size=0.0967741935483871;" vertex="1" parent="1">
          <mxGeometry x="170" y="350" width="310" height="80" as="geometry" />
        </mxCell>
        <mxCell id="PgvPZWXMv5SiJyR8IEnP-8" value="Конец" style="strokeWidth=2;html=1;shape=mxgraph.flowchart.terminator;whiteSpace=wrap;" vertex="1" parent="1">
          <mxGeometry x="170" y="470" width="310" height="60" as="geometry" />
        </mxCell>
        <mxCell id="PgvPZWXMv5SiJyR8IEnP-10" style="edgeStyle=orthogonalEdgeStyle;rounded=0;orthogonalLoop=1;jettySize=auto;html=1;entryX=0.5;entryY=0;entryDx=0;entryDy=0;" edge="1" parent="1" source="PgvPZWXMv5SiJyR8IEnP-9" target="PgvPZWXMv5SiJyR8IEnP-5">
          <mxGeometry relative="1" as="geometry" />
        </mxCell>
        <mxCell id="PgvPZWXMv5SiJyR8IEnP-9" value="Начало" style="strokeWidth=2;html=1;shape=mxgraph.flowchart.terminator;whiteSpace=wrap;" vertex="1" parent="1">
          <mxGeometry x="170" y="120" width="310" height="60" as="geometry" />
        </mxCell>
        <mxCell id="PgvPZWXMv5SiJyR8IEnP-12" style="edgeStyle=orthogonalEdgeStyle;rounded=0;orthogonalLoop=1;jettySize=auto;html=1;entryX=0.5;entryY=0;entryDx=0;entryDy=0;entryPerimeter=0;" edge="1" parent="1" source="PgvPZWXMv5SiJyR8IEnP-6" target="PgvPZWXMv5SiJyR8IEnP-8">
          <mxGeometry relative="1" as="geometry" />
        </mxCell>
      </root>
    </mxGraphModel>
  </diagram>
</mxfile>
